<svg xmlns="http://www.w3.org/2000/svg" xmlns:xlink="http://www.w3.org/1999/xlink" id="Layer_1" x="0px" y="0px" width="154px" height="110px" viewBox="0 0 154 110" xml:space="preserve">
<g>
	<g>
		<path d="M5.655-61.932c-1.148-0.609-2.045-1.457-2.689-2.545C2.322-65.564,2-66.797,2-68.171s0.322-2.602,0.966-3.681    c0.644-1.078,1.536-1.923,2.676-2.533c1.139-0.607,2.44-0.912,3.902-0.912c1.375,0,2.58,0.278,3.616,0.835    c1.035,0.558,1.814,1.357,2.336,2.401l-2.506,1.462c-0.401-0.644-0.901-1.127-1.5-1.448c-0.601-0.322-1.258-0.484-1.971-0.484    c-1.218,0-2.229,0.396-3.028,1.189c-0.801,0.791-1.201,1.849-1.201,3.171c0,1.323,0.396,2.381,1.188,3.173    c0.792,0.791,1.805,1.188,3.042,1.188c0.713,0,1.371-0.16,1.971-0.483c0.6-0.321,1.1-0.805,1.5-1.448l2.506,1.461    c-0.54,1.044-1.328,1.85-2.363,2.414c-1.036,0.566-2.232,0.85-3.589,0.85C8.099-61.018,6.803-61.321,5.655-61.932z"></path>
		<path fill="#002592" d="M20.562-61.932c-1.132-0.609-2.015-1.457-2.65-2.545s-0.953-2.32-0.953-3.694s0.318-2.602,0.953-3.681    c0.635-1.078,1.518-1.923,2.65-2.533c1.13-0.607,2.401-0.912,3.811-0.912c1.427,0,2.706,0.305,3.838,0.912    c1.131,0.61,2.014,1.455,2.649,2.533c0.635,1.079,0.953,2.307,0.953,3.681s-0.318,2.606-0.953,3.694    c-0.636,1.088-1.519,1.936-2.649,2.545c-1.132,0.61-2.411,0.914-3.838,0.914C22.963-61.018,21.692-61.321,20.562-61.932z     M27.348-65.012c0.783-0.8,1.175-1.854,1.175-3.159s-0.392-2.357-1.175-3.159c-0.783-0.8-1.775-1.201-2.976-1.201    c-1.201,0-2.188,0.401-2.963,1.201c-0.774,0.802-1.162,1.854-1.162,3.159s0.387,2.359,1.162,3.159    c0.774,0.801,1.762,1.201,2.963,1.201C25.573-63.811,26.565-64.211,27.348-65.012z"></path>
		<path d="M34.501-69.815h7.179v2.716h-7.179V-69.815z"></path>
		<path d="M66.61-75.141l-5.143,13.939h-3.133l-3.602-9.605l-3.655,9.605h-3.133l-5.117-13.939h3.081l3.681,10.285l3.837-10.285    h2.741l3.759,10.338l3.785-10.338H66.61z"></path>
		<path d="M70.917-61.932c-1.131-0.609-2.014-1.457-2.649-2.545c-0.635-1.088-0.953-2.32-0.953-3.694s0.317-2.602,0.953-3.681    c0.636-1.078,1.519-1.923,2.649-2.533c1.131-0.607,2.402-0.912,3.812-0.912c1.427,0,2.706,0.305,3.837,0.912    c1.131,0.61,2.014,1.455,2.649,2.533c0.635,1.079,0.953,2.307,0.953,3.681s-0.318,2.606-0.953,3.694    c-0.636,1.088-1.519,1.936-2.649,2.545c-1.132,0.61-2.411,0.914-3.837,0.914C73.319-61.018,72.048-61.321,70.917-61.932z     M77.705-65.012c0.784-0.8,1.175-1.854,1.175-3.159s-0.391-2.357-1.175-3.159c-0.784-0.8-1.776-1.201-2.976-1.201    c-1.201,0-2.189,0.401-2.963,1.201c-0.775,0.802-1.162,1.854-1.162,3.159s0.387,2.359,1.162,3.159    c0.774,0.801,1.762,1.201,2.963,1.201C75.929-63.811,76.921-64.211,77.705-65.012z"></path>
		<path d="M93.367-75.297v3.106c-0.277-0.052-0.53-0.079-0.756-0.079c-1.271,0-2.264,0.37-2.977,1.109    c-0.714,0.74-1.07,1.807-1.07,3.198v6.761h-3.264v-13.939h3.107v2.036C89.348-74.566,91-75.297,93.367-75.297z"></path>
		<path d="M101.826-67.179l-2.428,2.298v3.68h-3.264V-80.57h3.264v11.694l6.762-6.265h3.915l-5.821,5.848l6.369,8.092h-3.968    L101.826-67.179z"></path>
		<path d="M112.764-77.999c-0.4-0.374-0.6-0.84-0.6-1.397c0-0.557,0.199-1.021,0.6-1.396c0.4-0.373,0.896-0.561,1.488-0.561    s1.088,0.178,1.488,0.535c0.4,0.356,0.6,0.805,0.6,1.344c0,0.575-0.195,1.059-0.586,1.449c-0.393,0.392-0.893,0.587-1.502,0.587    C113.66-77.438,113.164-77.625,112.764-77.999z M112.607-75.141h3.264v13.939h-3.264V-75.141z"></path>
		<path d="M132.291-73.758c1.061,1.027,1.593,2.551,1.593,4.569v7.987h-3.264v-7.569c0-1.22-0.287-2.137-0.861-2.755    c-0.575-0.617-1.392-0.927-2.454-0.927c-1.201,0-2.15,0.361-2.846,1.084c-0.695,0.722-1.044,1.762-1.044,3.119v7.048h-3.264    v-13.939h3.106v1.801c0.54-0.644,1.219-1.131,2.037-1.462c0.817-0.33,1.74-0.495,2.767-0.495    C129.819-75.297,131.229-74.783,132.291-73.758z"></path>
		<path d="M152-75.141v11.826c0,4.907-2.506,7.361-7.519,7.361c-1.34,0-2.61-0.17-3.811-0.51c-1.2-0.339-2.193-0.831-2.977-1.475    l1.462-2.453c0.609,0.504,1.379,0.909,2.31,1.213c0.931,0.305,1.876,0.457,2.833,0.457c1.532,0,2.652-0.349,3.368-1.045    c0.713-0.695,1.07-1.758,1.07-3.185v-0.729c-0.558,0.609-1.236,1.069-2.036,1.383c-0.801,0.313-1.68,0.471-2.637,0.471    c-1.323,0-2.52-0.284-3.59-0.849c-1.07-0.566-1.915-1.362-2.532-2.39c-0.618-1.026-0.927-2.201-0.927-3.523    s0.309-2.493,0.927-3.512c0.617-1.018,1.462-1.805,2.532-2.362c1.07-0.557,2.267-0.835,3.59-0.835c1.01,0,1.928,0.165,2.754,0.495    c0.826,0.331,1.518,0.835,2.074,1.515v-1.854H152z M147.602-65.704c0.792-0.739,1.188-1.7,1.188-2.884    c0-1.166-0.396-2.115-1.188-2.846c-0.792-0.731-1.807-1.098-3.041-1.098c-1.254,0-2.275,0.366-3.068,1.098    c-0.791,0.73-1.188,1.68-1.188,2.846c0,1.184,0.396,2.145,1.188,2.884c0.793,0.74,1.814,1.11,3.068,1.11    C145.795-64.594,146.81-64.964,147.602-65.704z"></path>
	</g>
	<g>
		<g>
			<path fill="#002592" d="M41.874-57.451c-0.167,1.432-0.622,2.74-1.365,3.922c-0.963,1.529-2.299,2.727-4.012,3.588     c-1.712,0.863-3.636,1.295-5.77,1.295c-2.163,0-4.099-0.432-5.812-1.295c-1.712-0.861-3.049-2.059-4.012-3.588     c-0.742-1.182-1.196-2.49-1.365-3.922h3.674c0.142,0.832,0.432,1.6,0.872,2.3c0.651,1.032,1.552,1.841,2.711,2.425     c1.156,0.582,2.465,0.873,3.924,0.873c1.443,0,2.741-0.291,3.897-0.873c1.159-0.584,2.061-1.393,2.711-2.425     c0.439-0.7,0.729-1.468,0.872-2.3H41.874z"></path>
		</g>
	</g>
	<g>
		<rect x="22.109" y="-69.833" width="4.511" height="2.733"></rect>
	</g>
</g>
<g>
	<g>
		<path fill="#939598" d="M270.426-110.751c-1.549-0.992-3.387-1.576-5.363-1.576h-48.125c-1.951,0-3.766,0.57-5.303,1.539    c8.232,5.95,18.687,13.479,29.418,21.193C251.655-97.216,262.069-104.713,270.426-110.751z"></path>
		<path fill="#F8BF14" d="M211.997-62.604c1.457,0.835,3.141,1.318,4.94,1.318h32.787c2.699,2.187,0.755,12.882-4.106,17.743    c0,0,14.097-5.348,15.556-17.499l3.889-0.244c1.823,0,3.525-0.497,4.995-1.352c-8.028-5.757-18.465-13.248-29.005-20.822    C230.352-75.77,219.858-68.242,211.997-62.604z"></path>
		<path fill="#002592" d="M273.951-107.425c-7.278,5.261-16.76,12.092-28.267,20.363c-0.248,0.178-0.496,0.356-0.743,0.535    c10.031,7.209,20.146,14.47,28.773,20.654c1.426-1.724,2.285-3.937,2.285-6.351v-29.167    C276-103.661,275.232-105.748,273.951-107.425z"></path>
		<path d="M208.088-107.478c-1.304,1.685-2.088,3.793-2.088,6.088v29.167c0,2.436,0.877,4.664,2.327,6.396    c8.543-6.127,18.696-13.413,28.838-20.701C225.175-95.146,215.412-102.181,208.088-107.478z"></path>
	</g>
	<g>
		<path d="M223.102-23.082v3.011h-0.803v-3.011c0-1.043-0.396-1.559-1.176-1.559c-0.972,0-1.583,0.539-1.583,1.822v2.747h-0.804    v-3.011c0-1.043-0.396-1.559-1.176-1.559c-0.971,0-1.583,0.539-1.583,1.822v2.747h-0.803v-5.277h0.803v0.636    c0.384-0.456,0.924-0.72,1.583-0.72c0.924,0,1.5,0.3,1.775,1.02c0.372-0.647,0.995-1.02,1.787-1.02    C222.49-25.433,223.102-24.761,223.102-23.082z"></path>
		<path d="M225.854-17.673h-0.947l1.499-2.998l-2.339-4.678h0.948l1.858,3.729l1.871-3.729h0.947l-2.339,4.689L225.854-17.673z"></path>
		<path d="M235.614-22.698c0-1.499,1.235-2.734,2.734-2.734s2.734,1.235,2.734,2.734c0,1.476-1.235,2.759-2.734,2.759    S235.614-21.223,235.614-22.698z M236.454-22.698c0,1.044,0.827,1.967,1.895,1.967s1.896-0.923,1.896-1.967    c0-1.067-0.828-1.942-1.896-1.942S236.454-23.766,236.454-22.698z"></path>
		<path d="M247.731-27.892c-1.235-0.155-1.127,1.044-1.127,1.823v0.72h1.067v0.731h-1.067v4.546h-0.804v-4.546h-2.016v4.546h-0.803    v-4.546h-0.708v-0.731h0.708v-0.72c0-1.295,0.035-2.83,1.931-2.566v0.743c-1.235-0.155-1.128,1.044-1.128,1.823v0.72h2.016v-0.72    c0-1.295,0.036-2.83,1.931-2.566V-27.892z"></path>
		<path d="M249.114-26.992c0-0.287,0.252-0.551,0.576-0.551c0.3,0,0.563,0.264,0.563,0.551c0,0.324-0.264,0.576-0.563,0.576    C249.366-26.416,249.114-26.668,249.114-26.992z M249.282-25.349h0.84v5.277h-0.84V-25.349z"></path>
		<path d="M256.816-23.634c-0.324-0.6-0.936-1.007-1.667-1.007c-1.067,0-1.896,0.875-1.896,1.942c0,1.044,0.828,1.967,1.896,1.967    c0.731,0,1.343-0.432,1.667-1.031h0.911c-0.372,1.067-1.391,1.823-2.578,1.823c-1.499,0-2.734-1.283-2.734-2.759    c0-1.499,1.235-2.734,2.734-2.734c1.175,0,2.183,0.756,2.566,1.799H256.816z"></path>
		<path d="M264.483-22.326h-4.593c0.168,0.875,0.923,1.595,1.858,1.595c0.612,0,1.128-0.3,1.464-0.731h0.995    c-0.444,0.912-1.392,1.523-2.459,1.523c-1.499,0-2.734-1.283-2.734-2.759c0-1.499,1.235-2.734,2.734-2.734    s2.734,1.235,2.734,2.734V-22.326z M259.891-23.094h3.718c-0.18-0.876-0.936-1.547-1.859-1.547    C260.813-24.641,260.07-23.97,259.891-23.094z"></path>
		<path d="M265.494-20.684c0-0.359,0.3-0.659,0.672-0.659c0.359,0,0.659,0.3,0.659,0.659c0,0.372-0.3,0.672-0.659,0.672    C265.794-20.012,265.494-20.312,265.494-20.684z"></path>
	</g>
</g>
<g>
	<g>
		<rect x="335" y="-103.242" width="1.281" height="76.484"></rect>
	</g>
	<g>
		<path d="M356.332-84.26l-0.011-4.875l-1.801,4.125h-1.242l-1.799-4.125v4.875h-1.704v-7.511h2.09l2.034,4.468l2.036-4.468h2.078    v7.511H356.332z"></path>
		<path d="M372.383-84.26v-7.5h1.906v7.5H372.383z"></path>
		<path d="M393.889-84.26l-3.45-4.617v4.617h-1.788v-7.5h1.682l3.46,4.629v-4.629h1.779v7.5H393.889z"></path>
		<path d="M409.928-84.26v-7.5h1.908v7.5H409.928z"></path>
		<path d="M432.752-84.26l-0.01-4.875l-1.801,4.125h-1.243l-1.798-4.125v4.875h-1.705v-7.511h2.091l2.034,4.468l2.035-4.468h2.078    v7.511H432.752z"></path>
		<path d="M450.506-85.643l-0.547,1.383H448l3.234-7.5h1.961l3.16,7.5h-2.036l-0.534-1.383H450.506z M452.157-89.863l-1.094,2.775    h2.164L452.157-89.863z"></path>
		<path d="M475-85.856v1.597h-5.09v-7.5h1.908v5.903H475z"></path>
		<path d="M351.93-61.557l-2.914-7.499h2.035l1.917,5.517l1.918-5.517h1.961l-2.947,7.499H351.93z"></path>
		<path d="M370.507-61.557v-7.499h1.907v7.499H370.507z"></path>
		<path d="M392.076-61.557l-3.451-4.617v4.617h-1.788v-7.499h1.682l3.46,4.628v-4.628h1.779v7.499H392.076z"></path>
		<path d="M411.648-67.523v5.967h-1.907v-5.967h-2.239v-1.543h6.407v1.543H411.648z"></path>
		<path d="M428.546-62.938l-0.547,1.382h-1.96l3.235-7.499h1.96l3.161,7.499h-2.036l-0.535-1.382H428.546z M430.196-67.16    l-1.094,2.775h2.165L430.196-67.16z"></path>
		<path d="M454.439-65.371v2.926c-0.804,0.567-2.068,0.975-3.117,0.975c-2.281,0-4.007-1.65-4.007-3.836    c0-2.175,1.767-3.813,4.135-3.813c1.114,0,2.293,0.429,3.063,1.114l-1.07,1.296c-0.547-0.503-1.308-0.813-2.004-0.813    c-1.232,0-2.175,0.964-2.175,2.217c0,1.275,0.953,2.239,2.196,2.239c0.387,0,0.878-0.139,1.329-0.364v-1.939H454.439z"></path>
		<path d="M470.596-67.556v1.489h3.578v1.5h-3.578v1.51h4.081v1.5h-5.988v-7.499h5.87v1.5H470.596z"></path>
		<path d="M353.001-46.354c2.356,0,3.985,1.521,3.985,3.75c0,2.219-1.651,3.75-4.061,3.75h-3.15v-7.5H353.001z M351.684-40.375    h1.359c1.168,0,2.004-0.898,2.004-2.217c0-1.329-0.878-2.24-2.09-2.24h-1.273V-40.375z"></path>
		<path d="M376.701-44.853v1.489h3.577v1.5h-3.577v1.51h4.081v1.5h-5.988v-7.5h5.87v1.501H376.701z"></path>
		<path d="M404.654-45.604l-0.718,1.49c-0.792-0.461-1.788-0.782-2.399-0.782c-0.492,0-0.824,0.183-0.824,0.546    c0,1.297,3.963,0.557,3.963,3.269c0,1.499-1.328,2.292-3,2.292c-1.252,0-2.539-0.471-3.428-1.2l0.74-1.467    c0.771,0.675,1.928,1.125,2.71,1.125c0.6,0,0.974-0.226,0.974-0.654c0-1.328-3.963-0.535-3.963-3.192    c0-1.382,1.189-2.26,2.989-2.26C402.78-46.438,403.884-46.106,404.654-45.604z"></path>
		<path d="M422.518-38.854v-7.5h1.906v7.5H422.518z"></path>
		<path d="M449.36-42.668v2.926c-0.804,0.566-2.069,0.975-3.117,0.975c-2.283,0-4.009-1.649-4.009-3.836    c0-2.174,1.769-3.813,4.137-3.813c1.114,0,2.292,0.429,3.064,1.114l-1.072,1.297c-0.547-0.504-1.307-0.814-2.002-0.814    c-1.232,0-2.176,0.964-2.176,2.217c0,1.275,0.953,2.239,2.195,2.239c0.386,0,0.879-0.139,1.328-0.363v-1.94H449.36z"></path>
		<path d="M472.728-38.854l-3.449-4.617v4.617h-1.789v-7.5h1.682l3.461,4.629v-4.629h1.778v7.5H472.728z"></path>
	</g>
</g>
<g>
	<path fill-rule="evenodd" clip-rule="evenodd" fill="#002592" d="M566.349-36.85h-2.117v2.809h2.117   c0.493,0,0.871-0.123,1.157-0.373c0.279-0.244,0.415-0.581,0.415-1.031c0-0.449-0.136-0.786-0.415-1.031   C567.22-36.728,566.841-36.85,566.349-36.85z M566.881-37.91c0.188-0.052,0.352-0.131,0.485-0.234   c0.133-0.101,0.235-0.229,0.314-0.394c0.079-0.161,0.118-0.364,0.118-0.605s-0.04-0.444-0.117-0.604   c-0.079-0.164-0.182-0.293-0.314-0.395c-0.137-0.104-0.3-0.184-0.486-0.235c-0.195-0.054-0.404-0.081-0.62-0.081h-2.029v2.631   h2.029C566.478-37.828,566.687-37.855,566.881-37.91z M582.115-39.076c0-0.483-0.133-0.824-0.406-1.041   c-0.285-0.227-0.663-0.342-1.12-0.342h-2.117v2.764h2.117c0.458,0,0.835-0.113,1.12-0.341   C581.982-38.254,582.115-38.594,582.115-39.076z M574.76-49.808c0-0.481-0.133-0.823-0.405-1.04   c-0.284-0.227-0.663-0.342-1.122-0.342h-2.116v2.765h2.116c0.459,0,0.838-0.115,1.123-0.342   C574.627-48.984,574.76-49.324,574.76-49.808z M592.225-35.968h2.691l-1.346-3.783L592.225-35.968z M604.118-72.485   c2.179-3.069,3.361-6.754,3.361-10.52c0-9.825-7.881-17.88-17.63-18.206l-14.295,26.829l-5.288-0.024l4.025-12.938l9.595-12.982   l-25.043,10.4v61.203h37.599c12.35,0,22.558-10.209,22.558-22.559C619-60.996,612.775-69.328,604.118-72.485z M589.198-52.168   h5.778v0.979h-2.372v7.396h-1.045v-7.396h-2.361V-52.168z M568.781-34.424c-0.122,0.294-0.3,0.548-0.528,0.754   c-0.227,0.201-0.501,0.355-0.815,0.458c-0.309,0.099-0.651,0.149-1.021,0.149h-3.229v-8.376h3.14c0.35,0,0.68,0.052,0.983,0.151   c0.311,0.104,0.582,0.254,0.806,0.451c0.226,0.196,0.406,0.44,0.534,0.726c0.129,0.282,0.193,0.608,0.193,0.967   c0,0.468-0.124,0.884-0.368,1.239c-0.151,0.221-0.339,0.4-0.562,0.541c0.263,0.153,0.481,0.351,0.655,0.591   c0.265,0.368,0.397,0.815,0.397,1.327C568.967-35.063,568.904-34.719,568.781-34.424z M569.042-46.223   c-0.073,0.379-0.193,0.726-0.36,1.027c-0.168,0.311-0.382,0.576-0.635,0.792c-0.25,0.217-0.544,0.387-0.871,0.503   c-0.323,0.115-0.677,0.174-1.05,0.174c-0.407,0-0.799-0.076-1.164-0.228c-0.368-0.151-0.696-0.371-0.976-0.65   c-0.192-0.191-0.346-0.397-0.457-0.612c-0.109-0.211-0.192-0.451-0.243-0.716c-0.051-0.254-0.081-0.554-0.089-0.89   c-0.007-0.324-0.01-0.711-0.01-1.158c0-0.446,0.003-0.834,0.01-1.157c0.008-0.337,0.038-0.636,0.089-0.892   c0.051-0.262,0.133-0.502,0.243-0.716c0.11-0.213,0.264-0.419,0.457-0.612c0.279-0.279,0.607-0.497,0.976-0.648   c0.367-0.152,0.76-0.229,1.164-0.229c0.772,0,1.424,0.227,1.935,0.674c0.509,0.444,0.839,1.059,0.982,1.825l0.048,0.262h-1.06   l-0.038-0.174c-0.107-0.506-0.328-0.904-0.657-1.188s-0.726-0.42-1.21-0.42c-0.251,0-0.497,0.047-0.729,0.141   c-0.231,0.092-0.439,0.229-0.615,0.406c-0.125,0.123-0.224,0.256-0.295,0.396c-0.071,0.139-0.126,0.311-0.164,0.508   c-0.037,0.206-0.063,0.458-0.074,0.747c-0.01,0.298-0.017,0.657-0.017,1.077c0,0.421,0.007,0.78,0.017,1.078   c0.012,0.289,0.037,0.541,0.075,0.749c0.037,0.194,0.092,0.366,0.163,0.507c0.071,0.139,0.171,0.272,0.293,0.394   c0.179,0.18,0.386,0.316,0.616,0.407c0.233,0.094,0.479,0.141,0.73,0.141c0.486,0,0.887-0.137,1.223-0.42   c0.339-0.287,0.558-0.674,0.667-1.186l0.037-0.176h1.04L569.042-46.223z M575.99-35.857c0,0.414-0.074,0.801-0.219,1.148   c-0.144,0.35-0.35,0.656-0.612,0.91c-0.263,0.255-0.575,0.454-0.932,0.594c-0.354,0.139-0.751,0.209-1.177,0.209   c-0.428,0-0.824-0.07-1.181-0.209c-0.355-0.14-0.668-0.339-0.93-0.594c-0.264-0.256-0.47-0.562-0.614-0.91   c-0.144-0.349-0.217-0.735-0.217-1.148v-5.581h1.045v5.503c0,0.297,0.046,0.572,0.137,0.82c0.089,0.238,0.216,0.444,0.38,0.611   c0.163,0.167,0.362,0.298,0.592,0.391c0.466,0.185,1.103,0.186,1.574-0.001c0.229-0.092,0.429-0.223,0.591-0.389   c0.163-0.166,0.291-0.372,0.38-0.612c0.091-0.246,0.137-0.521,0.137-0.82v-5.503h1.046V-35.857z M574.836-43.793l-1.893-3.654   h-1.827v3.654h-1.046v-8.375h3.241c0.34,0,0.665,0.051,0.967,0.15c0.306,0.103,0.574,0.254,0.8,0.45   c0.229,0.199,0.41,0.452,0.537,0.749c0.127,0.293,0.191,0.63,0.191,1c0,0.654-0.187,1.191-0.554,1.598   c-0.304,0.334-0.695,0.566-1.165,0.695l1.951,3.732H574.836z M577.029-52.168h5.257v0.979h-4.212v2.687h3.588v0.978h-3.588v2.754   h4.212v0.979h-5.257V-52.168z M582.19-33.063l-1.894-3.653h-1.825v3.653h-1.046v-8.376h3.24c0.341,0,0.667,0.052,0.968,0.151   c0.308,0.104,0.577,0.256,0.8,0.451c0.228,0.199,0.409,0.45,0.536,0.748c0.127,0.293,0.19,0.629,0.19,1   c0,0.656-0.186,1.194-0.554,1.598c-0.301,0.333-0.691,0.566-1.163,0.695l1.951,3.732H582.19z M589.477-40.459h-4.211v2.686h3.587   v0.979h-3.587v2.754h4.211v0.979h-5.257v-8.376h5.257V-40.459z M588.785-43.793l-0.691-1.928h-3.387l-0.689,1.928h-1.12   l3.081-8.375h0.844l0.053,0.145l3.03,8.23H588.785z M595.953-33.063l-0.689-1.927h-3.387l-0.691,1.927h-1.12l3.081-8.376h0.846   l0.053,0.146l3.029,8.23H595.953z M597.139-43.793h-1.045v-8.375h1.045V-43.793z M603.356-35.857c0,0.413-0.073,0.8-0.217,1.148   c-0.146,0.35-0.351,0.655-0.613,0.91c-0.262,0.254-0.575,0.453-0.931,0.594c-0.355,0.139-0.752,0.209-1.18,0.209   c-0.426,0-0.822-0.07-1.179-0.209c-0.354-0.141-0.669-0.34-0.931-0.594c-0.264-0.256-0.47-0.562-0.613-0.91   c-0.145-0.349-0.217-0.735-0.217-1.148v-5.581h1.045v5.503c0,0.3,0.047,0.576,0.136,0.82c0.09,0.24,0.219,0.446,0.381,0.611   c0.165,0.17,0.359,0.298,0.592,0.39c0.468,0.187,1.104,0.186,1.574,0c0.229-0.092,0.428-0.223,0.591-0.39   c0.164-0.166,0.291-0.371,0.38-0.611c0.09-0.246,0.136-0.522,0.136-0.82v-5.503h1.046V-35.857z M601.534-43.793h-0.835   l-2.754-8.375h1.104l2.066,6.375l2.066-6.375h1.104L601.534-43.793z M610.351-51.189h-4.211v2.687h3.586v0.978h-3.586v2.754h4.211   v0.979h-5.257v-8.375h5.257V-51.189z M585.057-46.698h2.689l-1.345-3.782L585.057-46.698z"></path>
	<path fill-rule="evenodd" clip-rule="evenodd" fill="#F8BF14" d="M555.278-101.277l29.287,0.035l-14.3,26.836h-14.998   c-5.189,0.006-9.396,4.216-9.396,9.406c0,5.195,4.212,9.407,9.407,9.407v26.87C535.248-28.723,519-44.969,519-65   S535.246-101.277,555.278-101.277z"></path>
</g>
<path fill="#002592" d="M75.408,55.725h3.096l-1.532-3.969L75.408,55.725z M27,5v100h100V5H27z M104.824,18.406h8.397v2.145h-5.67  v2.131h5.119v2.145h-5.119v2.161h5.839v2.145h-8.566V18.406z M72.428,18.39h9.164v2.207h-3.234v8.535h-2.727v-8.535h-3.203V18.39z   M50.036,90.409h-2.405l-4.935-6.605v6.605h-2.56V79.683h2.406l4.949,6.62v-6.62h2.544V90.409z M43.723,59.771V49.044h2.727v10.727  H43.723z M46.475,29.132h-2.82l-4.168-10.726h2.912l2.742,7.892l2.742-7.892h2.805L46.475,29.132z M77.607,88.248  c0.553,0,1.257-0.198,1.9-0.521v-2.773h2.359v4.185c-1.148,0.812-2.957,1.395-4.459,1.395c-3.264,0-5.73-2.36-5.73-5.486  c0-3.111,2.527-5.456,5.914-5.456c1.594,0,3.279,0.614,4.383,1.595l-1.532,1.854c-0.782-0.72-1.87-1.165-2.866-1.165  c-1.762,0-3.11,1.38-3.11,3.173C74.466,86.869,75.83,88.248,77.607,88.248z M80.066,59.771l-0.766-1.977h-4.689l-0.781,1.977h-2.805  l4.629-10.727h2.803l4.521,10.727H80.066z M108.915,90.106c0,0-5.984-2.626-5.984-7.313c0-1.836,1.489-3.325,3.325-3.325  c1.089,0,2.053,0.526,2.659,1.337c0.606-0.811,1.569-1.337,2.659-1.337c1.836,0,3.324,1.489,3.324,3.325  C114.898,87.447,108.915,90.106,108.915,90.106z"></path>
<g>
	<g>
		<polygon fill="#002592" points="263.133,28.918 234.42,28.918 234.42,31.226 231.686,31.226 231.686,26.184 265.867,26.184     265.867,51.478 231.686,51.478 231.686,44.727 234.42,44.727 234.42,48.744 263.133,48.744   "></polygon>
		<path fill="#002592" d="M244.674,21.913c-1.131,0-2.051,0.918-2.051,2.051v1.279h-2.734v-1.279c0-2.643,2.143-4.785,4.785-4.785    h8.205c2.643,0,4.785,2.143,4.785,4.785v1.279h-2.734v-1.279c0-1.133-0.918-2.051-2.051-2.051H244.674z"></path>
	</g>
	<g>
		<polygon fill="#F8BF14" points="247.58,42.676 218.867,42.676 218.867,62.502 247.58,62.502 247.58,53.443 250.314,53.443     250.314,65.236 216.133,65.236 216.133,39.941 250.314,39.941 250.314,47.12 247.58,47.12   "></polygon>
		<path fill="#F8BF14" d="M229.121,35.672c-1.133,0-2.051,0.917-2.051,2.051v1.279h-2.734v-1.279c0-2.644,2.143-4.786,4.785-4.786    h8.205c2.643,0,4.785,2.143,4.785,4.786v1.279h-2.734v-1.279c0-1.134-0.92-2.051-2.051-2.051H229.121z"></path>
	</g>
	<g>
		<g>
			<path fill-rule="evenodd" clip-rule="evenodd" d="M181.979,90.821c1.078-0.008,1.98-0.188,2.709-0.545s1.377-0.851,1.943-1.48     l-1.588-1.604c-0.434,0.41-0.881,0.732-1.34,0.969c-0.461,0.235-1.008,0.355-1.645,0.36c-0.652-0.008-1.225-0.172-1.717-0.493     c-0.492-0.319-0.877-0.748-1.152-1.284c-0.275-0.537-0.416-1.134-0.42-1.79v-0.032c0.016-0.999,0.326-1.831,0.928-2.497     s1.389-1.013,2.361-1.038c0.564,0.004,1.08,0.117,1.549,0.343c0.471,0.225,0.922,0.537,1.355,0.938l1.588-1.832     c-0.514-0.526-1.125-0.947-1.83-1.263c-0.705-0.316-1.588-0.479-2.645-0.486c-1.17,0.012-2.197,0.28-3.082,0.804     c-0.885,0.524-1.576,1.226-2.074,2.108c-0.498,0.882-0.752,1.867-0.76,2.955v0.032c0.01,1.099,0.266,2.086,0.768,2.962     c0.5,0.876,1.186,1.571,2.059,2.085C179.857,90.546,180.855,90.809,181.979,90.821z"></path>
			<path fill-rule="evenodd" clip-rule="evenodd" d="M196.977,90.821c1.178-0.014,2.219-0.281,3.125-0.805     c0.904-0.523,1.615-1.226,2.133-2.108c0.516-0.882,0.779-1.867,0.787-2.955v-0.032c-0.008-1.088-0.268-2.07-0.779-2.947     c-0.512-0.876-1.217-1.573-2.117-2.092s-1.939-0.784-3.115-0.796c-1.178,0.012-2.219,0.28-3.125,0.804     c-0.906,0.524-1.617,1.226-2.133,2.108c-0.516,0.882-0.779,1.867-0.789,2.955v0.032c0.01,1.088,0.27,2.07,0.781,2.946     c0.51,0.878,1.217,1.575,2.117,2.093C194.762,90.543,195.801,90.808,196.977,90.821z M197.01,88.521     c-0.676-0.008-1.271-0.172-1.785-0.493c-0.516-0.319-0.918-0.748-1.209-1.284c-0.291-0.537-0.439-1.134-0.445-1.79v-0.032     c0.018-0.999,0.334-1.831,0.949-2.497c0.617-0.666,1.436-1.013,2.457-1.038c0.676,0.008,1.271,0.173,1.785,0.492     c0.516,0.321,0.918,0.749,1.209,1.285c0.291,0.537,0.439,1.134,0.443,1.79v0.032c-0.016,0.998-0.332,1.831-0.947,2.498     C198.85,88.148,198.031,88.495,197.01,88.521z"></path>
		</g>
		<g>
			<polygon fill-rule="evenodd" clip-rule="evenodd" points="209.221,90.68 211.389,90.68 213.941,83.273 216.498,90.68      218.664,90.68 222.529,79.28 219.926,79.28 217.58,86.944 215.043,79.247 212.908,79.247 210.369,86.944 208.023,79.28      205.355,79.28    "></polygon>
			<path fill-rule="evenodd" clip-rule="evenodd" d="M231.984,90.793c1.174-0.014,2.213-0.28,3.117-0.804     c0.902-0.521,1.611-1.222,2.127-2.102s0.777-1.863,0.787-2.948v-0.032c-0.01-1.086-0.27-2.065-0.779-2.94     s-1.213-1.57-2.111-2.087c-0.898-0.518-1.934-0.782-3.109-0.794c-1.174,0.012-2.213,0.28-3.115,0.802     c-0.904,0.522-1.613,1.224-2.129,2.104c-0.514,0.88-0.777,1.862-0.787,2.948v0.032c0.01,1.085,0.27,2.064,0.779,2.939     s1.215,1.57,2.113,2.088C229.773,90.516,230.811,90.78,231.984,90.793z M232.016,88.498c-0.672-0.009-1.268-0.173-1.779-0.491     c-0.514-0.319-0.916-0.747-1.205-1.283c-0.291-0.534-0.439-1.13-0.445-1.784v-0.032c0.018-0.996,0.332-1.827,0.947-2.491     c0.615-0.665,1.432-1.01,2.451-1.036c0.674,0.008,1.268,0.172,1.781,0.491c0.512,0.32,0.914,0.747,1.205,1.282     c0.289,0.536,0.439,1.131,0.443,1.786v0.032c-0.016,0.996-0.332,1.826-0.947,2.491C233.854,88.128,233.037,88.472,232.016,88.498     z"></path>
			<path fill-rule="evenodd" clip-rule="evenodd" d="M243.121,90.599h2.486v-3.622h1.959l2.426,3.622h2.91l-2.764-4.043     c0.73-0.265,1.314-0.688,1.752-1.269s0.662-1.327,0.672-2.239v-0.032c0-0.536-0.084-1.022-0.248-1.459s-0.406-0.813-0.721-1.13     c-0.373-0.372-0.836-0.656-1.389-0.853c-0.553-0.194-1.189-0.293-1.91-0.294h-5.174V90.599z M245.607,84.778v-3.252h2.477     c0.613,0,1.09,0.137,1.434,0.408s0.518,0.675,0.523,1.21v0.032c-0.004,0.484-0.17,0.87-0.498,1.158     c-0.33,0.289-0.799,0.437-1.41,0.443H245.607z"></path>
			<polygon fill-rule="evenodd" clip-rule="evenodd" points="257.402,90.599 259.891,90.599 259.891,87.138 261.201,85.779      264.711,90.599 267.703,90.599 262.883,84.082 267.492,79.28 264.484,79.28 259.891,84.228 259.891,79.28 257.402,79.28    "></polygon>
			<rect x="272.543" y="79.28" fill-rule="evenodd" clip-rule="evenodd" width="2.488" height="11.318"></rect>
			<polygon fill-rule="evenodd" clip-rule="evenodd" points="280.627,90.599 283.084,90.599 283.084,83.403 288.568,90.599      290.684,90.599 290.684,79.28 288.229,79.28 288.229,86.248 282.922,79.28 280.627,79.28    "></polygon>
			<path fill-rule="evenodd" clip-rule="evenodd" d="M301.004,90.793c1.035-0.014,1.955-0.189,2.758-0.528     c0.805-0.338,1.496-0.76,2.078-1.266v-4.916h-4.916v2.148h2.508v1.619c-0.318,0.227-0.674,0.396-1.07,0.51     c-0.395,0.113-0.82,0.17-1.275,0.17c-1.021-0.021-1.844-0.36-2.467-1.02c-0.625-0.659-0.945-1.517-0.963-2.571v-0.032     c0.021-0.989,0.338-1.817,0.945-2.485c0.609-0.667,1.377-1.015,2.307-1.042c0.641,0.003,1.189,0.104,1.643,0.302     c0.455,0.198,0.895,0.481,1.316,0.848l1.568-1.893c-0.574-0.502-1.209-0.886-1.9-1.15c-0.695-0.266-1.543-0.398-2.547-0.4     c-1.152,0.012-2.174,0.28-3.063,0.802c-0.889,0.522-1.588,1.224-2.096,2.104s-0.766,1.862-0.775,2.948v0.032     c0.008,1.126,0.262,2.124,0.758,2.997c0.498,0.872,1.193,1.559,2.082,2.059C298.785,90.527,299.82,90.782,301.004,90.793z"></path>
		</g>
	</g>
</g>
<g>
	<g>
		<path fill-rule="evenodd" clip-rule="evenodd" d="M347.418,94.631v-6.18h1.001v6.18H347.418L347.418,94.631z M354.122,94.631    v-6.42l3.924,3.771c0.106,0.105,0.215,0.223,0.328,0.342c0.108,0.119,0.224,0.26,0.343,0.408v-4.281h0.925v6.42l-4.001-3.846    c-0.105-0.105-0.212-0.211-0.311-0.332c-0.099-0.109-0.192-0.234-0.284-0.359v4.297H354.122L354.122,94.631z M365.336,94.631    v-6.18h1.003v6.18H365.336L365.336,94.631z M374.035,89.309v5.322h-1.001v-5.322h-1.644v-0.857h4.278v0.857H374.035    L374.035,89.309z M380.714,94.631v-6.18h1.001v6.18H380.714L380.714,94.631z M390.442,92.199l-0.632-1.408    c-0.037-0.086-0.075-0.193-0.114-0.311c-0.038-0.113-0.079-0.244-0.117-0.389c-0.033,0.137-0.069,0.262-0.108,0.375    c-0.036,0.121-0.075,0.227-0.116,0.324l-0.632,1.408l-0.373,0.844l-0.718,1.588h-1.053l2.993-6.42l2.985,6.42h-1.059l-0.7-1.588    L390.442,92.199L390.442,92.199z M397.396,94.631v-6.18h1.005v5.277h2.243v0.902H397.396L397.396,94.631z M407.975,93.393    l0.798-0.369c0.077,0.273,0.212,0.486,0.413,0.629c0.203,0.146,0.463,0.217,0.78,0.217c0.299,0,0.539-0.082,0.712-0.25    c0.174-0.164,0.26-0.385,0.26-0.664c0-0.365-0.298-0.688-0.904-0.973c-0.087-0.043-0.144-0.07-0.192-0.09    c-0.684-0.332-1.136-0.637-1.357-0.9c-0.23-0.27-0.346-0.602-0.346-0.986c0-0.506,0.173-0.91,0.52-1.227    c0.337-0.309,0.788-0.467,1.337-0.467c0.463,0,0.838,0.092,1.146,0.264c0.309,0.174,0.52,0.428,0.636,0.756l-0.779,0.408    c-0.126-0.195-0.261-0.342-0.404-0.428c-0.155-0.092-0.318-0.135-0.511-0.135c-0.27,0-0.491,0.072-0.645,0.213    c-0.163,0.139-0.24,0.326-0.24,0.563c0,0.371,0.346,0.721,1.049,1.039c0.048,0.025,0.096,0.049,0.124,0.057    c0.607,0.285,1.03,0.559,1.262,0.828c0.221,0.27,0.337,0.602,0.337,1.006c0,0.584-0.184,1.049-0.549,1.391    c-0.375,0.346-0.866,0.521-1.502,0.521c-0.52,0-0.952-0.121-1.289-0.363C408.291,94.188,408.07,93.84,407.975,93.393    L407.975,93.393z M418.655,94.631v-2.83l-2.088-3.35h1.059l1.299,2.098c0.029,0.053,0.067,0.125,0.116,0.213    c0.048,0.086,0.086,0.182,0.134,0.279c0.048-0.098,0.087-0.188,0.126-0.275c0.048-0.092,0.096-0.168,0.145-0.24l1.327-2.074h1.001    l-2.127,3.35v2.83H418.655L418.655,94.631z M431.743,91.58c-0.02-0.049-0.029-0.184-0.059-0.395    c-0.019-0.184-0.038-0.332-0.057-0.449c-0.029,0.141-0.068,0.281-0.106,0.42c-0.048,0.143-0.105,0.283-0.183,0.432l-1.617,3.291    l-1.607-3.357c-0.067-0.141-0.134-0.275-0.183-0.404c-0.048-0.125-0.086-0.254-0.125-0.381c0,0.131-0.009,0.266-0.028,0.404    c-0.02,0.145-0.048,0.293-0.087,0.447l-0.664,3.043h-0.923l1.463-6.438l1.818,3.895c0.028,0.064,0.076,0.164,0.135,0.309    c0.057,0.145,0.125,0.322,0.201,0.529c0.067-0.172,0.154-0.398,0.279-0.674c0.039-0.07,0.068-0.129,0.077-0.168l1.78-3.891    l1.492,6.438h-0.924L431.743,91.58L431.743,91.58z M439.402,91.061h0.386c0.472,0,0.809-0.064,1.01-0.193    c0.193-0.135,0.298-0.355,0.298-0.658c0-0.344-0.096-0.58-0.278-0.713c-0.183-0.141-0.528-0.209-1.029-0.209h-0.386V91.061    L439.402,91.061z M439.402,93.793h0.347c0.347,0,0.615-0.016,0.789-0.045c0.174-0.027,0.309-0.074,0.414-0.148    c0.116-0.08,0.212-0.191,0.279-0.326c0.067-0.141,0.105-0.289,0.105-0.459c0-0.195-0.038-0.371-0.125-0.514    c-0.076-0.143-0.202-0.26-0.347-0.336c-0.096-0.053-0.201-0.088-0.327-0.109c-0.125-0.021-0.288-0.035-0.49-0.035h-0.299h-0.347    V93.793L439.402,93.793z M438.411,94.631v-6.18h1.56c0.442,0,0.779,0.025,0.991,0.072c0.212,0.049,0.385,0.125,0.539,0.236    c0.192,0.145,0.337,0.326,0.442,0.553s0.164,0.48,0.164,0.756c0,0.332-0.077,0.605-0.231,0.828    c-0.154,0.221-0.375,0.373-0.664,0.463c0.366,0.051,0.645,0.215,0.848,0.488c0.211,0.27,0.308,0.611,0.308,1.025    c0,0.252-0.039,0.49-0.125,0.717c-0.087,0.221-0.212,0.414-0.366,0.574c-0.173,0.168-0.385,0.287-0.636,0.359    c-0.249,0.072-0.663,0.107-1.26,0.107H438.411L438.411,94.631z M452.942,91.557c0-0.314-0.058-0.613-0.173-0.891    c-0.115-0.285-0.279-0.535-0.49-0.75c-0.212-0.219-0.453-0.387-0.723-0.502c-0.278-0.115-0.567-0.178-0.865-0.178    c-0.309,0-0.597,0.057-0.876,0.172c-0.271,0.115-0.52,0.285-0.731,0.508c-0.212,0.215-0.375,0.461-0.491,0.744    c-0.105,0.279-0.163,0.578-0.163,0.896c0,0.313,0.058,0.604,0.163,0.885c0.116,0.273,0.279,0.523,0.491,0.744    c0.212,0.223,0.461,0.385,0.731,0.502c0.27,0.115,0.567,0.172,0.876,0.172c0.298,0,0.576-0.057,0.856-0.172    c0.269-0.117,0.51-0.279,0.731-0.502c0.211-0.221,0.375-0.471,0.49-0.75C452.885,92.158,452.942,91.863,452.942,91.557    L452.942,91.557z M453.981,91.557c0,0.438-0.076,0.85-0.24,1.24c-0.173,0.395-0.403,0.74-0.722,1.049    c-0.317,0.309-0.673,0.539-1.077,0.703c-0.395,0.164-0.818,0.246-1.251,0.246c-0.453,0-0.876-0.082-1.28-0.246    c-0.404-0.17-0.761-0.398-1.068-0.703c-0.317-0.309-0.548-0.654-0.712-1.045c-0.164-0.385-0.25-0.803-0.25-1.244    c0-0.445,0.086-0.863,0.25-1.254c0.164-0.387,0.395-0.74,0.712-1.047c0.317-0.309,0.674-0.539,1.078-0.703    c0.395-0.158,0.817-0.24,1.271-0.24c0.442,0,0.856,0.082,1.26,0.24c0.396,0.164,0.751,0.395,1.068,0.703    c0.318,0.313,0.549,0.662,0.722,1.053C453.905,90.705,453.981,91.117,453.981,91.557L453.981,91.557z M459.39,94.631v-6.18h1.002    v5.277h2.251v0.902H459.39z"></path>
		<rect x="450.181" y="87.768" fill-rule="evenodd" clip-rule="evenodd" width="1.001" height="7.545"></rect>
		<rect x="347.357" y="97.82" fill-rule="evenodd" clip-rule="evenodd" width="115.285" height="0.338"></rect>
		<path fill-rule="evenodd" clip-rule="evenodd" d="M347.357,104.314v-2.539h0.414v2.17h0.921v0.369H347.357L347.357,104.314z     M354.074,103.051c0-0.131-0.023-0.256-0.069-0.365c-0.048-0.121-0.115-0.221-0.202-0.314c-0.087-0.086-0.186-0.152-0.296-0.205    c-0.116-0.043-0.236-0.068-0.358-0.068c-0.126,0-0.243,0.025-0.356,0.068c-0.112,0.047-0.214,0.119-0.304,0.205    c-0.086,0.094-0.153,0.193-0.198,0.309c-0.047,0.115-0.07,0.24-0.07,0.371c0,0.125,0.023,0.248,0.07,0.359    c0.045,0.117,0.112,0.217,0.198,0.309c0.09,0.092,0.188,0.158,0.304,0.209c0.111,0.047,0.23,0.07,0.356,0.07    c0.122,0,0.241-0.023,0.354-0.07c0.11-0.051,0.212-0.117,0.301-0.209c0.087-0.092,0.154-0.191,0.202-0.309    C354.051,103.297,354.074,103.176,354.074,103.051L354.074,103.051z M354.505,103.051c0,0.178-0.034,0.346-0.102,0.51    c-0.069,0.158-0.165,0.303-0.295,0.428c-0.13,0.131-0.28,0.227-0.443,0.295c-0.163,0.066-0.336,0.096-0.517,0.096    c-0.183,0-0.356-0.029-0.524-0.096c-0.164-0.072-0.311-0.164-0.438-0.295c-0.132-0.125-0.229-0.27-0.296-0.428    c-0.064-0.16-0.101-0.328-0.101-0.51c0-0.184,0.036-0.357,0.101-0.518c0.067-0.162,0.164-0.301,0.296-0.43    c0.131-0.127,0.276-0.223,0.44-0.291c0.163-0.061,0.34-0.096,0.522-0.096s0.355,0.035,0.52,0.096    c0.163,0.068,0.311,0.164,0.44,0.291c0.13,0.129,0.226,0.273,0.295,0.43C354.471,102.697,354.505,102.867,354.505,103.051    L354.505,103.051z M358.391,102.857h0.072c0.221,0,0.362-0.029,0.436-0.078c0.071-0.053,0.107-0.143,0.107-0.27    c0-0.143-0.038-0.238-0.115-0.297s-0.219-0.086-0.428-0.086h-0.072V102.857L358.391,102.857z M358.364,103.176v1.139h-0.388    v-2.539h0.575c0.168,0,0.301,0.01,0.392,0.029c0.097,0.023,0.176,0.057,0.241,0.109c0.077,0.063,0.137,0.141,0.181,0.236    c0.043,0.102,0.064,0.207,0.064,0.322c0,0.201-0.048,0.361-0.146,0.477s-0.243,0.184-0.438,0.207l0.875,1.158h-0.465l-0.847-1.139    H358.364L358.364,103.176z M362.964,104.314v-2.539h1.419v0.348h-1.005v0.639h1.005v0.361h-1.005v0.822h1.005v0.369H362.964    L362.964,104.314z M369.927,103.061c-0.006-0.02-0.014-0.076-0.024-0.164c-0.008-0.076-0.015-0.135-0.022-0.184    c-0.012,0.059-0.026,0.115-0.045,0.174c-0.018,0.057-0.044,0.115-0.07,0.174l-0.666,1.357l-0.667-1.383    c-0.026-0.057-0.05-0.109-0.071-0.164c-0.02-0.057-0.039-0.109-0.051-0.158c-0.003,0.055-0.007,0.107-0.015,0.17    c-0.008,0.057-0.02,0.115-0.033,0.178l-0.272,1.254h-0.38l0.6-2.65l0.75,1.604c0.012,0.029,0.029,0.066,0.053,0.129    c0.021,0.059,0.054,0.131,0.087,0.219c0.024-0.074,0.063-0.164,0.116-0.281c0.014-0.029,0.022-0.053,0.028-0.066l0.733-1.604    l0.613,2.65h-0.384L369.927,103.061L369.927,103.061z M374.998,104.314v-2.539h0.413v2.539H374.998L374.998,104.314z     M379.417,102.834h0.104c0.229,0,0.383-0.025,0.46-0.072c0.077-0.053,0.115-0.139,0.115-0.266c0-0.135-0.044-0.23-0.123-0.289    c-0.081-0.053-0.233-0.08-0.452-0.08h-0.104V102.834L379.417,102.834z M379.391,103.17v1.145h-0.387v-2.539h0.623    c0.188,0,0.321,0.01,0.41,0.029c0.087,0.018,0.162,0.053,0.229,0.1c0.079,0.059,0.143,0.137,0.188,0.236    c0.043,0.102,0.067,0.213,0.067,0.332c0,0.121-0.024,0.23-0.067,0.332c-0.046,0.1-0.109,0.182-0.188,0.24    c-0.066,0.045-0.142,0.078-0.229,0.096c-0.089,0.021-0.223,0.029-0.41,0.029h-0.08H379.391L379.391,103.17z M383.748,103.807    l0.326-0.154c0.034,0.115,0.09,0.201,0.176,0.26c0.082,0.059,0.188,0.09,0.318,0.09c0.122,0,0.219-0.037,0.293-0.105    c0.072-0.066,0.108-0.158,0.108-0.27c0-0.152-0.123-0.283-0.373-0.404c-0.034-0.014-0.061-0.029-0.08-0.033    c-0.278-0.139-0.467-0.258-0.56-0.375c-0.092-0.111-0.14-0.246-0.14-0.402c0-0.209,0.072-0.377,0.212-0.502    c0.139-0.129,0.324-0.193,0.554-0.193c0.185,0,0.343,0.035,0.471,0.105c0.125,0.072,0.212,0.18,0.26,0.314l-0.32,0.168    c-0.053-0.082-0.108-0.139-0.171-0.178c-0.06-0.039-0.13-0.059-0.209-0.059c-0.107,0-0.199,0.029-0.263,0.086    c-0.066,0.064-0.098,0.141-0.098,0.236c0,0.154,0.142,0.295,0.431,0.424c0.02,0.014,0.038,0.02,0.05,0.023    c0.253,0.121,0.426,0.23,0.518,0.342c0.094,0.111,0.142,0.252,0.142,0.414c0,0.24-0.077,0.434-0.229,0.572    c-0.151,0.145-0.358,0.213-0.613,0.213c-0.216,0-0.395-0.049-0.534-0.145C383.88,104.133,383.79,103.988,383.748,103.807    L383.748,103.807z M388.831,101.775h0.406v1.539c0,0.23,0.056,0.4,0.161,0.516c0.106,0.115,0.263,0.172,0.472,0.172    c0.212,0,0.368-0.057,0.475-0.172c0.104-0.115,0.158-0.285,0.158-0.516v-1.539h0.414v1.578c0,0.342-0.086,0.602-0.261,0.77    c-0.175,0.174-0.435,0.256-0.786,0.256c-0.349,0-0.608-0.082-0.782-0.25c-0.173-0.174-0.257-0.43-0.257-0.775V101.775    L388.831,101.775z M396.553,103.061c0-0.02-0.009-0.076-0.019-0.164c-0.009-0.076-0.02-0.135-0.029-0.184    c-0.009,0.059-0.02,0.115-0.038,0.174c-0.02,0.057-0.048,0.115-0.077,0.174l-0.661,1.357l-0.666-1.383    c-0.027-0.057-0.052-0.109-0.073-0.164c-0.019-0.057-0.038-0.109-0.05-0.158c-0.003,0.055-0.007,0.107-0.015,0.17    c-0.01,0.057-0.02,0.115-0.036,0.178l-0.27,1.254h-0.383l0.602-2.65l0.751,1.604c0.013,0.029,0.028,0.066,0.053,0.129    c0.021,0.059,0.053,0.131,0.087,0.219c0.021-0.074,0.063-0.164,0.113-0.281c0.014-0.029,0.023-0.053,0.03-0.066l0.729-1.604    l0.615,2.65h-0.379L396.553,103.061L396.553,103.061z M402.034,103.941h0.346c0.188,0,0.332-0.014,0.429-0.041    c0.096-0.023,0.183-0.066,0.25-0.129c0.097-0.08,0.168-0.182,0.217-0.309c0.048-0.119,0.072-0.258,0.072-0.422    s-0.024-0.303-0.072-0.424c-0.049-0.125-0.12-0.227-0.217-0.309c-0.072-0.057-0.154-0.105-0.26-0.131    c-0.096-0.023-0.255-0.037-0.472-0.037h-0.144h-0.149V103.941L402.034,103.941z M401.62,104.314v-2.539h0.559    c0.36,0,0.615,0.014,0.765,0.053c0.145,0.033,0.279,0.096,0.384,0.184c0.15,0.111,0.261,0.254,0.338,0.432    c0.072,0.174,0.115,0.377,0.115,0.602c0,0.227-0.043,0.424-0.115,0.602c-0.077,0.172-0.188,0.313-0.338,0.43    c-0.104,0.086-0.234,0.148-0.375,0.182c-0.144,0.039-0.365,0.057-0.664,0.057h-0.109H401.62L401.62,104.314z M409.427,103.051    c0-0.131-0.029-0.256-0.077-0.365c-0.048-0.121-0.115-0.221-0.202-0.314c-0.086-0.086-0.183-0.152-0.298-0.205    c-0.115-0.043-0.231-0.068-0.356-0.068s-0.24,0.025-0.355,0.068c-0.106,0.047-0.212,0.119-0.299,0.205    c-0.087,0.094-0.154,0.193-0.202,0.309s-0.067,0.24-0.067,0.371c0,0.125,0.02,0.248,0.067,0.359    c0.048,0.117,0.115,0.217,0.202,0.309s0.184,0.158,0.299,0.209c0.115,0.047,0.23,0.07,0.355,0.07s0.241-0.023,0.356-0.07    c0.115-0.051,0.212-0.117,0.298-0.209c0.087-0.092,0.154-0.191,0.202-0.309C409.397,103.297,409.427,103.176,409.427,103.051    L409.427,103.051z M409.85,103.051c0,0.178-0.028,0.346-0.096,0.51c-0.067,0.158-0.173,0.303-0.298,0.428    c-0.135,0.131-0.279,0.227-0.442,0.295c-0.164,0.066-0.337,0.096-0.521,0.096c-0.183,0-0.355-0.029-0.519-0.096    c-0.164-0.072-0.318-0.164-0.443-0.295c-0.128-0.125-0.229-0.27-0.296-0.428c-0.063-0.16-0.097-0.328-0.097-0.51    c0-0.184,0.034-0.357,0.097-0.518c0.067-0.162,0.168-0.301,0.296-0.43c0.135-0.127,0.279-0.223,0.443-0.291    c0.163-0.061,0.336-0.096,0.519-0.096c0.184,0,0.356,0.035,0.521,0.096c0.163,0.068,0.308,0.164,0.442,0.291    c0.125,0.129,0.23,0.273,0.298,0.43C409.821,102.697,409.85,102.867,409.85,103.051L409.85,103.051z M413.324,104.314v-2.539    h0.414v2.17h0.923v0.369H413.324L413.324,104.314z M420.041,103.051c0-0.131-0.028-0.256-0.067-0.365    c-0.049-0.121-0.116-0.221-0.202-0.314c-0.086-0.086-0.192-0.152-0.298-0.205c-0.116-0.043-0.231-0.068-0.355-0.068    c-0.126,0-0.251,0.025-0.356,0.068c-0.115,0.047-0.222,0.119-0.309,0.205c-0.087,0.094-0.154,0.193-0.202,0.309    c-0.049,0.115-0.067,0.24-0.067,0.371c0,0.125,0.019,0.248,0.067,0.359c0.048,0.117,0.115,0.217,0.202,0.309    s0.193,0.158,0.309,0.209c0.105,0.047,0.23,0.07,0.356,0.07c0.124,0,0.239-0.023,0.346-0.07c0.115-0.051,0.212-0.117,0.308-0.209    c0.086-0.092,0.153-0.191,0.202-0.309C420.013,103.297,420.041,103.176,420.041,103.051L420.041,103.051z M420.474,103.051    c0,0.178-0.038,0.346-0.104,0.51c-0.068,0.158-0.164,0.303-0.299,0.428c-0.125,0.131-0.27,0.227-0.443,0.295    c-0.163,0.066-0.337,0.096-0.509,0.096c-0.185,0-0.356-0.029-0.53-0.096c-0.163-0.072-0.308-0.164-0.433-0.295    c-0.135-0.125-0.231-0.27-0.299-0.428c-0.067-0.16-0.105-0.328-0.105-0.51c0-0.184,0.038-0.357,0.105-0.518    c0.067-0.162,0.164-0.301,0.299-0.43c0.125-0.127,0.27-0.223,0.433-0.291c0.164-0.061,0.346-0.096,0.53-0.096    c0.183,0,0.355,0.035,0.52,0.096c0.163,0.068,0.308,0.164,0.433,0.291c0.135,0.129,0.23,0.273,0.299,0.43    C420.436,102.697,420.474,102.867,420.474,103.051L420.474,103.051z M424.353,102.857h0.077c0.221,0,0.365-0.029,0.433-0.078    c0.077-0.053,0.115-0.143,0.115-0.27c0-0.143-0.048-0.238-0.124-0.297c-0.068-0.059-0.212-0.086-0.424-0.086h-0.077V102.857    L424.353,102.857z M424.333,103.176v1.139h-0.395v-2.539h0.577c0.174,0,0.298,0.01,0.395,0.029    c0.097,0.023,0.174,0.057,0.241,0.109c0.077,0.063,0.134,0.141,0.183,0.236c0.039,0.102,0.066,0.207,0.066,0.322    c0,0.201-0.057,0.361-0.152,0.477c-0.097,0.115-0.241,0.184-0.435,0.207l0.876,1.158h-0.471l-0.847-1.139H424.333L424.333,103.176    z M429.857,103.807l0.327-0.154c0.038,0.115,0.096,0.201,0.172,0.26c0.088,0.059,0.192,0.09,0.318,0.09    c0.125,0,0.222-0.037,0.298-0.105c0.067-0.066,0.106-0.158,0.106-0.27c0-0.152-0.126-0.283-0.375-0.404    c-0.029-0.014-0.059-0.029-0.078-0.033c-0.278-0.139-0.461-0.258-0.557-0.375c-0.097-0.111-0.146-0.246-0.146-0.402    c0-0.209,0.077-0.377,0.213-0.502c0.144-0.129,0.326-0.193,0.557-0.193c0.183,0,0.347,0.035,0.473,0.105    c0.125,0.072,0.211,0.18,0.26,0.314l-0.317,0.168c-0.059-0.082-0.116-0.139-0.174-0.178c-0.059-0.039-0.135-0.059-0.212-0.059    c-0.106,0-0.202,0.029-0.26,0.086c-0.067,0.064-0.096,0.141-0.096,0.236c0,0.154,0.135,0.295,0.423,0.424    c0.029,0.014,0.038,0.02,0.059,0.023c0.25,0.121,0.423,0.23,0.51,0.342c0.096,0.111,0.145,0.252,0.145,0.414    c0,0.24-0.077,0.434-0.231,0.572c-0.145,0.145-0.355,0.213-0.606,0.213c-0.221,0-0.395-0.049-0.539-0.145    C429.991,104.133,429.905,103.988,429.857,103.807L429.857,103.807z M434.957,104.314v-2.539h0.414v2.539H434.957L434.957,104.314    z M439.788,102.123v2.191h-0.414v-2.191H438.7v-0.348h1.752v0.348H439.788L439.788,102.123z M445.379,103.314h0.713l-0.26-0.576    c-0.02-0.041-0.039-0.082-0.049-0.131c-0.019-0.047-0.039-0.102-0.048-0.158c-0.02,0.053-0.029,0.105-0.049,0.154    c-0.019,0.047-0.028,0.09-0.048,0.135L445.379,103.314L445.379,103.314z M446.523,104.314l-0.288-0.654h-1.011l-0.298,0.654    h-0.434l1.232-2.641l1.231,2.641H446.523L446.523,104.314z M452.27,103.061c-0.011-0.02-0.02-0.076-0.029-0.164    c-0.01-0.076-0.02-0.135-0.02-0.184c-0.01,0.059-0.029,0.115-0.048,0.174c-0.02,0.057-0.038,0.115-0.067,0.174l-0.664,1.357    l-0.673-1.383c-0.021-0.057-0.049-0.109-0.068-0.164c-0.019-0.057-0.038-0.109-0.048-0.158c-0.01,0.055-0.01,0.107-0.02,0.17    c-0.009,0.057-0.019,0.115-0.028,0.178l-0.279,1.254h-0.376l0.598-2.65l0.75,1.604c0.011,0.029,0.029,0.066,0.059,0.129    c0.02,0.059,0.048,0.131,0.086,0.219c0.02-0.074,0.058-0.164,0.106-0.281c0.019-0.029,0.028-0.053,0.038-0.066l0.731-1.604    l0.616,2.65h-0.386L452.27,103.061L452.27,103.061z M456.263,104.314v-2.539h1.415v0.348h-1.011v0.639h1.011v0.361h-1.011v0.822    h1.011v0.369H456.263L456.263,104.314z M461.969,102.123v2.191h-0.414v-2.191h-0.673v-0.348h1.761v0.348H461.969z"></path>
	</g>
	<path fill-rule="evenodd" clip-rule="evenodd" fill="#F8BF14" d="M445.143,63.609l-17.59-47.561h-11.025l-2.955,7.98   c2.701,4.422,4.254,9.617,4.254,15.174c0,10.211-5.244,19.191-13.188,24.406h6.445h21.913H445.143z"></path>
	<path fill-rule="evenodd" clip-rule="evenodd" fill="#BE1E2D" d="M436.75,47.979h17.397L455,50.152h-17.396L436.75,47.979   L436.75,47.979z M431.629,34.928h17.398l0.852,2.176h-17.396L431.629,34.928L431.629,34.928z M433.334,39.275h17.397l0.853,2.176   h-17.391L433.334,39.275L433.334,39.275z M435.046,43.627h17.397l0.852,2.174h-17.396L435.046,43.627z"></path>
	<circle fill-rule="evenodd" clip-rule="evenodd" fill="#F8BF14" cx="398.453" cy="14.374" r="8.792"></circle>
	<circle fill-rule="evenodd" clip-rule="evenodd" fill="#002592" cx="378.195" cy="43.606" r="23.196"></circle>
	<path fill-rule="evenodd" clip-rule="evenodd" d="M388.65,68.943c3.979,0,7.84-0.746,11.5-2.316l0.273-0.117l-0.16,0.439h15.109   l2.901-7.76h17.844l2.901,7.76h15.114l-20.552-55.564h-12.771l-5.514,14.91c-1.456-3.008-3.354-5.73-5.725-8.102   c-2.721-2.732-5.896-4.844-9.422-6.377c-3.66-1.594-7.52-2.354-11.5-2.354c-3.992,0-7.869,0.746-11.535,2.354   c-3.51,1.537-6.672,3.654-9.389,6.377c-2.719,2.725-4.82,5.908-6.342,9.459c-1.58,3.684-2.328,7.572-2.328,11.59   c0,4.014,0.748,7.904,2.328,11.588c1.521,3.547,3.623,6.732,6.342,9.455c2.714,2.723,5.873,4.826,9.389,6.342   C380.785,68.211,384.664,68.943,388.65,68.943L388.65,68.943z M402.514,65.498c2.592-1.373,4.962-3.109,7.059-5.213   c2.722-2.723,4.825-5.908,6.344-9.455c1.582-3.684,2.33-7.574,2.33-11.588c0-3.824-0.68-7.527-2.103-11.051l5.677-15.355h10.751   l19.474,52.662h-12.022l-2.9-7.76h-19.852l-2.901,7.76H402.514L402.514,65.498z M388.65,67.475c-3.784,0-7.479-0.691-10.966-2.195   c-3.341-1.443-6.356-3.447-8.938-6.035c-2.583-2.588-4.585-5.627-6.03-8.998c-1.499-3.498-2.208-7.197-2.208-11.004   c0-3.809,0.709-7.51,2.208-11.006c1.445-3.373,3.445-6.41,6.03-8.998c2.59-2.596,5.608-4.613,8.947-6.076   c3.481-1.523,7.169-2.23,10.957-2.23c3.782,0,7.451,0.721,10.926,2.232c3.354,1.461,6.382,3.473,8.979,6.074   c2.584,2.588,4.584,5.625,6.028,8.998c1.505,3.496,2.213,7.197,2.213,11.006c0,3.807-0.708,7.506-2.213,11.004   c-1.444,3.371-3.444,6.41-6.028,8.998c-2.59,2.596-5.617,4.594-8.969,6.033C396.103,66.768,392.43,67.475,388.65,67.475z"></path>
	<path fill-rule="evenodd" clip-rule="evenodd" d="M408.946,40.09c1.677,0,3.038,1.361,3.038,3.041c0,1.678-1.361,3.043-3.038,3.043   s-3.036-1.365-3.036-3.043C405.91,41.451,407.27,40.09,408.946,40.09L408.946,40.09z M408.946,41.445   c-0.935,0-1.69,0.756-1.69,1.686c0,0.932,0.756,1.688,1.69,1.688s1.691-0.756,1.691-1.688   C410.638,42.201,409.881,41.445,408.946,41.445z"></path>
</g>
<g>
	<path fill="#002592" d="M579.84,17.793h-27.556v43.279h30.906v-5.537c-1.187-0.266-2.354-0.631-3.465-1.109   c-2.566-1.072-4.77-2.604-6.627-4.613l1.991-2.395c2.396,1.57,5.094,2.623,8.101,3.121V41.73l5.956,0.037L579.84,17.793z"></path>
	<g>
		<path d="M521.679,87.904c-3.365,0.303-6.158,0.453-8.377,0.453c-1.479,0-2.565-0.348-3.261-1.041    c-0.694-0.695-1.041-1.781-1.041-3.262v-7.244c0-1.586,0.358-2.736,1.075-3.453s1.869-1.076,3.453-1.076h8.15v3.17h-7.244    c-0.906,0-1.359,0.453-1.359,1.359v7.244c0,0.348,0.104,0.623,0.306,0.826c0.205,0.205,0.464,0.307,0.782,0.307    c0.316,0,0.664-0.004,1.041-0.012c0.377-0.006,0.77-0.018,1.177-0.033s0.819-0.029,1.235-0.045    c0.414-0.016,0.95-0.047,1.606-0.092s1.477-0.098,2.456-0.158V87.904z"></path>
		<path d="M535.491,84.734c0,1.131-0.32,2.02-0.963,2.66c-0.642,0.643-1.528,0.963-2.66,0.963h-5.207    c-1.133,0-2.02-0.32-2.661-0.963c-0.641-0.641-0.963-1.529-0.963-2.66v-5.207c0-1.133,0.322-2.02,0.963-2.662    c0.642-0.641,1.528-0.961,2.661-0.961h5.207c1.132,0,2.019,0.32,2.66,0.961c0.643,0.643,0.963,1.529,0.963,2.662V84.734z     M531.528,79.865c0-0.602-0.303-0.904-0.904-0.904h-2.718c-0.604,0-0.906,0.303-0.906,0.904v4.529    c0,0.604,0.302,0.906,0.906,0.906h2.718c0.602,0,0.904-0.303,0.904-0.906V79.865z"></path>
		<path d="M550.208,83.377l2.038-7.246h4.301l-3.735,12h-4.188l-2.266-7.246l-2.264,7.246h-4.188l-3.737-12h4.303l2.037,7.246    l2.038-7.246h3.624L550.208,83.377z"></path>
		<path d="M569.68,84.734c0,1.131-0.321,2.02-0.963,2.66c-0.642,0.643-1.528,0.963-2.66,0.963h-5.208    c-1.132,0-2.018-0.32-2.66-0.963c-0.642-0.641-0.962-1.529-0.962-2.66v-5.207c0-1.133,0.32-2.02,0.962-2.662    c0.643-0.641,1.528-0.961,2.66-0.961h5.208c1.132,0,2.019,0.32,2.66,0.961c0.642,0.643,0.963,1.529,0.963,2.662V84.734z     M565.717,79.865c0-0.602-0.302-0.904-0.905-0.904h-2.717c-0.604,0-0.906,0.303-0.906,0.904v4.529    c0,0.604,0.303,0.906,0.906,0.906h2.717c0.604,0,0.905-0.303,0.905-0.906V79.865z"></path>
		<path d="M578.623,79.414c-0.951,0-1.932,0.227-2.943,0.68v8.037h-3.963v-12h3.51l0.227,1.473c1.298-1.133,2.656-1.699,4.075-1.699    h1.02v3.51H578.623z"></path>
		<path d="M586.095,83.377v4.754h-3.963v-15.85h3.963v8.039h1.812l2.49-4.189h4.189l-3.397,5.773l3.397,6.227h-4.189l-2.604-4.754    H586.095z"></path>
		<path d="M600.698,76.584v11.547h-3.963v-8.49h-1.698v-3.057H600.698z M596.735,72.055h3.963v3.17h-3.963V72.055z"></path>
		<path d="M609.643,79.188c-0.802,0-1.706,0.15-2.717,0.453v8.49h-3.963v-12h3.509l0.227,1.133c0.709-0.469,1.438-0.813,2.185-1.031    c0.748-0.219,1.377-0.328,1.891-0.328h1.019c1.028,0,1.85,0.309,2.47,0.928c0.617,0.619,0.927,1.443,0.927,2.469v8.83h-3.962    v-8.15c0-0.227-0.075-0.416-0.226-0.566c-0.151-0.15-0.341-0.227-0.566-0.227H609.643z"></path>
		<path d="M625.037,87.225c-1.464,0.303-2.747,0.453-3.849,0.453h-0.793c-1.025,0-1.849-0.309-2.466-0.928    c-0.621-0.619-0.931-1.441-0.931-2.469v-4.527c0-1.133,0.321-2.02,0.964-2.66c0.641-0.643,1.528-0.963,2.66-0.963H629v12.68    c0,1.025-0.31,1.848-0.929,2.467s-1.441,0.93-2.467,0.93c-2.371,0-5.012-0.152-7.927-0.453v-2.943    c2.884,0.227,5.073,0.34,6.568,0.34c0.226,0,0.414-0.076,0.565-0.227c0.15-0.152,0.226-0.34,0.226-0.566V87.225z M622.32,84.621    c0.952,0,1.856-0.074,2.717-0.227v-5.207h-3.169c-0.604,0-0.905,0.303-0.905,0.906v3.736c0,0.225,0.075,0.416,0.226,0.564    c0.151,0.152,0.34,0.227,0.566,0.227H622.32z"></path>
	</g>
</g>
</svg>